<svg width="197" height="47" viewBox="0 0 197 47" fill="none" xmlns="http://www.w3.org/2000/svg">
<path d="M0.5 21.9375C0.645833 21.5 0.875 21.125 1.1875 20.8125C1.52083 20.5 1.875 20.2396 2.25 20.0312C2.64583 19.8021 3.05208 19.6146 3.46875 19.4688C3.88542 19.3229 4.28125 19.1979 4.65625 19.0938C5.48958 18.7396 6.375 18.4062 7.3125 18.0938C8.27083 17.7604 9.23958 17.4688 10.2188 17.2188C11.2188 16.9688 12.2396 16.8125 13.2812 16.75C14.3229 16.6667 15.4167 16.7917 16.5625 17.125C16.625 17.3333 16.7188 17.5312 16.8438 17.7188C16.9688 17.9062 17.0938 18.0938 17.2188 18.2812C17.3646 18.4688 17.4896 18.6562 17.5938 18.8438C17.6979 19.0104 17.7604 19.1875 17.7812 19.375C17.9896 19.5625 18.1562 19.7708 18.2812 20C18.4062 20.2083 18.4271 20.4896 18.3438 20.8438C18.1354 21.0104 17.9271 21.1667 17.7188 21.3125C17.5312 21.4375 17.3229 21.5521 17.0938 21.6562C16.3229 21.4688 15.5417 21.4062 14.75 21.4688C13.9583 21.5312 13.25 21.5833 12.625 21.625C12.4375 21.4375 12.2083 21.3438 11.9375 21.3438C11.6875 21.3438 11.4167 21.3854 11.125 21.4688C10.8542 21.5521 10.5729 21.6354 10.2812 21.7188C10.0104 21.8021 9.75 21.8229 9.5 21.7812C9.29167 21.9479 9.03125 22.0625 8.71875 22.125C8.42708 22.1667 8.10417 22.2083 7.75 22.25C7.72917 22.3542 7.75 22.4271 7.8125 22.4688C7.875 22.4896 7.88542 22.5521 7.84375 22.6562C7.96875 22.8021 8.125 22.9062 8.3125 22.9688C8.52083 23.0312 8.72917 23.0938 8.9375 23.1562C9.16667 23.2188 9.36458 23.3021 9.53125 23.4062C9.69792 23.4896 9.8125 23.6354 9.875 23.8438C10.1875 23.8438 10.4583 23.9167 10.6875 24.0625C10.9167 24.2083 11.1042 24.3854 11.25 24.5938C11.3958 24.8021 11.5 25.0312 11.5625 25.2812C11.6458 25.5104 11.6875 25.7188 11.6875 25.9062C11.75 26.0729 11.8229 26.1458 11.9062 26.125C11.9896 26.1042 12.0833 26.1458 12.1875 26.25C12.25 26.5208 12.4062 26.8021 12.6562 27.0938C12.9062 27.3646 13.1042 27.6667 13.25 28C13.2917 28.5208 13.3229 28.9896 13.3438 29.4062C13.3646 29.8021 13.2917 30.2083 13.125 30.625C12.8125 31.3958 12.375 32.0833 11.8125 32.6875C11.2708 33.2917 10.6458 33.8333 9.9375 34.3125C9.25 34.7708 8.51042 35.1667 7.71875 35.5C6.92708 35.8333 6.15625 36.1146 5.40625 36.3438C5.32292 36.3229 5.23958 36.3229 5.15625 36.3438C5.07292 36.3646 5.05208 36.3125 5.09375 36.1875C4.92708 36.3333 4.73958 36.4271 4.53125 36.4688C4.34375 36.5104 4.13542 36.5208 3.90625 36.5C3.67708 36.5 3.4375 36.4896 3.1875 36.4688C2.95833 36.4479 2.73958 36.4583 2.53125 36.5C2.38542 36.3542 2.25 36.2083 2.125 36.0625C2.02083 35.9375 1.9375 35.7708 1.875 35.5625C1.77083 35.5625 1.71875 35.5104 1.71875 35.4062C1.73958 35.3021 1.70833 35.25 1.625 35.25C1.75 35.0417 1.80208 34.9271 1.78125 34.9062C1.78125 34.8646 1.75 34.8333 1.6875 34.8125C1.64583 34.7917 1.60417 34.7708 1.5625 34.75C1.52083 34.7083 1.51042 34.6562 1.53125 34.5938C1.61458 34.4271 1.64583 34.2396 1.625 34.0312C1.60417 33.8021 1.58333 33.5729 1.5625 33.3438C1.54167 33.1146 1.55208 32.8958 1.59375 32.6875C1.65625 32.4792 1.8125 32.3125 2.0625 32.1875C2.77083 32.2708 3.4375 32.25 4.0625 32.125C4.70833 31.9792 5.3125 31.7812 5.875 31.5312C6.4375 31.2812 6.96875 31.0104 7.46875 30.7188C7.98958 30.4271 8.5 30.1667 9 29.9375C9.0625 29.75 9.14583 29.5938 9.25 29.4688C9.375 29.3438 9.5 29.2292 9.625 29.125C9.75 29.0208 9.86458 28.9062 9.96875 28.7812C10.0729 28.6562 10.1458 28.5 10.1875 28.3125C10.2083 28.1667 10.1667 28.0833 10.0625 28.0625C9.97917 28.0208 9.9375 27.9375 9.9375 27.8125L9.59375 27.7188C9.19792 27.4896 8.75 27.3021 8.25 27.1562C7.75 26.9896 7.32292 26.8125 6.96875 26.625C6.73958 26.75 6.52083 26.7812 6.3125 26.7188C6.125 26.6562 5.875 26.5938 5.5625 26.5312C4.85417 26.4896 4.16667 26.4167 3.5 26.3125C2.85417 26.2083 2.22917 26.0208 1.625 25.75C1.58333 25.6458 1.53125 25.5521 1.46875 25.4688C1.40625 25.3854 1.29167 25.3646 1.125 25.4062C1 25.2396 0.875 25.0833 0.75 24.9375C0.625 24.7708 0.510417 24.5938 0.40625 24.4062C0.447917 24.1562 0.479167 23.9479 0.5 23.7812C0.520833 23.5938 0.458333 23.4167 0.3125 23.25C0.395833 22.9792 0.458333 22.7604 0.5 22.5938C0.541667 22.4271 0.541667 22.2083 0.5 21.9375ZM33.2812 18.2188C33.3229 18.6771 33.3958 19.0729 33.5 19.4062C33.6042 19.7396 33.7188 20.0625 33.8438 20.375C33.9479 20.6667 34.0417 20.9583 34.125 21.25C34.2292 21.5208 34.3021 21.8542 34.3438 22.25C34.1771 22.7917 34.0521 23.2917 33.9688 23.75C33.9062 24.2083 33.8333 24.6875 33.75 25.1875C33.4167 25.9167 33.0938 26.5625 32.7812 27.125C32.4688 27.6875 32.2188 28.1771 32.0312 28.5938C31.9271 28.6979 31.8333 28.8229 31.75 28.9688C31.6875 29.0938 31.6146 29.2292 31.5312 29.375C31.4896 29.4375 31.4375 29.5312 31.375 29.6562C31.3125 29.7812 31.2604 29.8646 31.2188 29.9062L30.5938 29.6875L30.4688 30.4688L30.0312 30.5938L29.7188 30.9688C29.3229 31.6562 28.9062 32.2396 28.4688 32.7188C28.0312 33.1771 27.5312 33.5938 26.9688 33.9688C26.4271 34.3229 25.8021 34.6562 25.0938 34.9688C24.4062 35.2812 23.625 35.625 22.75 36C22.3958 35.9583 22.0833 35.9375 21.8125 35.9375C21.5625 35.9167 21.3229 35.8958 21.0938 35.875C20.6979 35.875 20.2083 35.8438 19.625 35.7812C19.5625 35.6146 19.4688 35.5 19.3438 35.4375C19.2188 35.375 19.1042 35.3438 19 35.3438C18.6458 35.1771 18.375 34.9375 18.1875 34.625C18.0208 34.2917 17.8542 33.9375 17.6875 33.5625C17.5833 33.3333 17.4792 33.125 17.375 32.9375C17.2708 32.7292 17.1562 32.5208 17.0312 32.3125L17.5625 32.1562L16.875 31.4062C16.8333 31.3438 16.7812 31.2917 16.7188 31.25C16.6562 31.1875 16.6042 31.125 16.5625 31.0625L16.5312 30.5625C16.4688 29.125 16.4375 27.8125 16.4375 26.625C16.4583 25.4167 16.625 24.3438 16.9375 23.4062V23.0625C17 22.6042 17.0625 22.2292 17.125 21.9375C17.1875 21.625 17.2396 21.3333 17.2812 21.0625C17.3438 20.6042 17.4375 20.1771 17.5625 19.7812C17.8542 19.7188 18.0729 19.6042 18.2188 19.4375C18.3646 19.25 18.4896 19.0833 18.5938 18.9375C18.8854 18.9167 19.0833 18.9583 19.1875 19.0625C19.2917 19.1667 19.3958 19.3333 19.5 19.5625C19.6042 19.75 19.7292 19.9583 19.875 20.1875C20.0417 20.4167 20.2812 20.5938 20.5938 20.7188C20.6354 20.8854 20.6875 21.0625 20.75 21.25C20.8333 21.4167 20.9167 21.6042 21 21.8125C21.1667 22.1667 21.3125 22.5417 21.4375 22.9375C21.5833 23.3125 21.6667 23.6771 21.6875 24.0312C21.4792 24.4271 21.3125 24.8854 21.1875 25.4062C21.0833 25.9271 21.0104 26.4583 20.9688 27C20.9479 27.5208 20.9583 28.0312 21 28.5312C21.0625 29.0104 21.1562 29.4167 21.2812 29.75L21.4688 30.1562L22 30.0938C22.625 29.9271 23.1875 29.75 23.6875 29.5625C24.2083 29.3542 24.6875 29.1146 25.125 28.8438C25.5625 28.5729 25.9792 28.2604 26.375 27.9062C26.7708 27.5312 27.1875 27.1042 27.625 26.625C28.0625 26.1458 28.4375 25.6042 28.75 25C29.0833 24.375 29.3542 23.7292 29.5625 23.0625C29.7917 22.3958 29.9583 21.7396 30.0625 21.0938C30.1875 20.4271 30.2708 19.8021 30.3125 19.2188C30.6667 19.0938 30.8438 18.8438 30.8438 18.4688L30.7812 18.125C30.6979 18 30.6979 17.8542 30.7812 17.6875C30.9062 17.2917 31.1979 16.9896 31.6562 16.7812C31.9896 16.9896 32.2812 17.2188 32.5312 17.4688C32.8021 17.7188 33.0521 17.9688 33.2812 18.2188ZM45.3438 16.625C46.2188 16.7292 47 16.9062 47.6875 17.1562C48.375 17.4062 48.9583 17.7396 49.4375 18.1562C49.7708 18.6771 50.0833 19.2396 50.375 19.8438C50.6875 20.4479 50.9167 21.0833 51.0625 21.75C51.2292 22.3958 51.3021 23.0625 51.2812 23.75C51.2812 24.4375 51.1354 25.1354 50.8438 25.8438C50.2396 26.5938 49.5 27.2083 48.625 27.6875C47.7708 28.1458 46.8438 28.5208 45.8438 28.8125C44.8438 29.1042 43.8021 29.3542 42.7188 29.5625C41.6562 29.7708 40.6146 29.9792 39.5938 30.1875C39.6146 30.6667 39.6146 31.1771 39.5938 31.7188C39.5938 32.2396 39.5417 32.7708 39.4375 33.3125C39.3542 33.8333 39.2188 34.3438 39.0312 34.8438C38.8438 35.3438 38.5938 35.8021 38.2812 36.2188C37.9271 36.2188 37.5625 36.2604 37.1875 36.3438C36.8125 36.4479 36.4792 36.5312 36.1875 36.5938C36.0417 36.5104 35.9062 36.4271 35.7812 36.3438C35.6771 36.2812 35.5208 36.2396 35.3125 36.2188C35.3542 36.0104 35.3021 35.8021 35.1562 35.5938C35.0104 35.3646 34.8646 35.1354 34.7188 34.9062C34.5729 34.6771 34.4688 34.4583 34.4062 34.25C34.3646 34.0417 34.4688 33.8438 34.7188 33.6562C34.5729 33.5104 34.5 33.3229 34.5 33.0938C34.6458 32.8438 34.7708 32.5 34.875 32.0625C35 31.625 35.0938 31.1979 35.1562 30.7812C35.2396 30.3438 35.2604 29.9479 35.2188 29.5938C35.1771 29.2396 34.9688 28.9792 34.5938 28.8125C34.6146 28.7708 34.6562 28.75 34.7188 28.75C34.7812 28.75 34.8438 28.7396 34.9062 28.7188C34.7396 28.5938 34.6354 28.4167 34.5938 28.1875C34.5729 27.9583 34.5 27.7604 34.375 27.5938C34.4167 27.4896 34.4479 27.3958 34.4688 27.3125C34.4896 27.2292 34.5625 27.1979 34.6875 27.2188C34.625 26.8438 34.625 26.4896 34.6875 26.1562C34.7708 25.8229 34.8854 25.5104 35.0312 25.2188C35.1771 24.9062 35.3542 24.6042 35.5625 24.3125C35.7708 24.0208 35.9688 23.7292 36.1562 23.4375C36.3021 23.4167 36.3854 23.4375 36.4062 23.5C36.4479 23.5625 36.5208 23.5521 36.625 23.4688C36.8958 23.2604 37.0833 23.0417 37.1875 22.8125C37.2917 22.5833 37.3438 22.3229 37.3438 22.0312C37.4896 21.5938 37.6667 21.1562 37.875 20.7188C38.0833 20.2604 38.3125 19.8438 38.5625 19.4688C38.8125 19.0938 39.0833 18.7604 39.375 18.4688C39.6875 18.1771 40.0104 17.9583 40.3438 17.8125C40.5938 17.6042 40.9062 17.4167 41.2812 17.25C41.6562 17.0625 42.0625 16.9271 42.5 16.8438C42.9375 16.7396 43.375 16.6875 43.8125 16.6875C44.2708 16.6667 44.6875 16.7083 45.0625 16.8125C45.1667 16.8542 45.2188 16.8333 45.2188 16.75C45.2396 16.6667 45.2812 16.625 45.3438 16.625ZM44.0625 24.0938C44.5833 23.8646 45.1354 23.6875 45.7188 23.5625C46.3229 23.4167 46.8229 23.1562 47.2188 22.7812C46.9688 22.5521 46.6042 22.3542 46.125 22.1875C45.6458 22 45.125 21.8854 44.5625 21.8438C44 21.8021 43.4271 21.8542 42.8438 22C42.2812 22.125 41.7917 22.375 41.375 22.75C41.25 23.125 41.1458 23.4271 41.0625 23.6562C40.9792 23.8646 40.8646 24.125 40.7188 24.4375C40.7604 24.5417 40.8229 24.625 40.9062 24.6875C41.0104 24.7292 41.0833 24.8021 41.125 24.9062C41.6042 24.6562 42.0833 24.5208 42.5625 24.5C43.0625 24.4583 43.5625 24.3229 44.0625 24.0938ZM67.7812 18.4062C67.8021 18.5521 67.8021 18.6667 67.7812 18.75C67.7812 18.8125 67.7708 18.875 67.75 18.9375C67.75 19 67.75 19.0729 67.75 19.1562C67.75 19.2188 67.7708 19.3229 67.8125 19.4688C67.375 20.1771 66.8646 20.6667 66.2812 20.9375C65.7188 21.1875 65.1042 21.375 64.4375 21.5C63.7708 21.6042 63.0833 21.7188 62.375 21.8438C61.6875 21.9688 61 22.2396 60.3125 22.6562C60.0417 22.5521 59.7917 22.5521 59.5625 22.6562C59.3542 22.7604 59.0417 22.7917 58.625 22.75C58.5 22.875 58.3438 22.9688 58.1562 23.0312C57.9688 23.0729 57.7812 23.125 57.5938 23.1875C57.6771 23.375 57.7083 23.5729 57.6875 23.7812C57.6875 23.9688 57.7188 24.125 57.7812 24.25C58.5104 24.3125 59.3125 24.3021 60.1875 24.2188C61.0833 24.1354 61.9583 24.0833 62.8125 24.0625C62.8333 24.1667 62.8229 24.2396 62.7812 24.2812C62.7396 24.3021 62.7292 24.3542 62.75 24.4375C62.8958 24.5417 63.0417 24.6771 63.1875 24.8438C63.3333 24.9896 63.4792 25.1354 63.625 25.2812C63.7708 25.4271 63.9167 25.5521 64.0625 25.6562C64.2292 25.7396 64.4167 25.7708 64.625 25.75C64.7083 25.9167 64.7604 26.1042 64.7812 26.3125C64.8229 26.5 64.8021 26.6979 64.7188 26.9062C64.3854 27.1354 64.0521 27.375 63.7188 27.625C63.3854 27.8542 63.0312 28.0625 62.6562 28.25C62.3021 28.4375 61.9167 28.5938 61.5 28.7188C61.1042 28.8229 60.6562 28.8646 60.1562 28.8438C60.0521 28.8438 59.9688 28.8438 59.9062 28.8438C59.8646 28.8438 59.8021 28.8125 59.7188 28.75C59.5521 28.8542 59.3125 28.8854 59 28.8438C58.7083 28.8021 58.4792 28.8333 58.3125 28.9375C58.0833 28.8333 57.8021 28.7917 57.4688 28.8125C57.1562 28.8125 56.875 28.7708 56.625 28.6875C56.2917 29.125 55.9896 29.5938 55.7188 30.0938C55.4479 30.5938 55.2083 31.125 55 31.6875C55.7083 31.7917 56.2917 31.8333 56.75 31.8125C57.2292 31.7917 57.6771 31.7604 58.0938 31.7188C58.5104 31.6562 58.9375 31.6042 59.375 31.5625C59.8125 31.5 60.3646 31.4792 61.0312 31.5C61.4479 31.2708 61.9375 31.125 62.5 31.0625C63.0833 30.9792 63.6146 30.8542 64.0938 30.6875C64.2604 30.75 64.4062 30.8646 64.5312 31.0312C64.6562 31.1771 64.7708 31.3229 64.875 31.4688C65 31.5938 65.125 31.7083 65.25 31.8125C65.375 31.9167 65.5312 31.9583 65.7188 31.9375C65.8021 32.0208 65.8542 32.125 65.875 32.25C65.9167 32.3542 65.9479 32.4583 65.9688 32.5625C65.9896 32.6667 66.0208 32.7604 66.0625 32.8438C66.125 32.9062 66.2188 32.9271 66.3438 32.9062C66.0312 33.5938 65.6667 34.125 65.25 34.5C64.8542 34.8542 64.3958 35.125 63.875 35.3125C63.3542 35.5 62.7708 35.6458 62.125 35.75C61.5 35.8542 60.8021 35.9792 60.0312 36.125C59.8438 36.1667 59.6875 36.1562 59.5625 36.0938C59.4375 36.0521 59.2917 36.0312 59.125 36.0312C58.6458 36.1354 58.0729 36.2292 57.4062 36.3125C56.7396 36.3958 56.0625 36.4271 55.375 36.4062C54.6875 36.3854 54.0312 36.2917 53.4062 36.125C52.7812 35.9792 52.2708 35.7083 51.875 35.3125C51.7083 35.1667 51.5938 35 51.5312 34.8125C51.4896 34.6042 51.3542 34.4479 51.125 34.3438C51.1042 34.0729 51.0625 33.7708 51 33.4375C50.9375 33.1042 50.875 32.7604 50.8125 32.4062C50.75 32.0312 50.6979 31.6667 50.6562 31.3125C50.6354 30.9583 50.6562 30.6354 50.7188 30.3438C50.7812 30.0312 50.9062 29.75 51.0938 29.5C51.3021 29.25 51.375 28.9792 51.3125 28.6875C51.4167 28.6667 51.4792 28.6146 51.5 28.5312C51.5208 28.4271 51.6042 28.3854 51.75 28.4062C51.875 28.0312 52.0104 27.6771 52.1562 27.3438C52.3021 27.0104 52.4479 26.6875 52.5938 26.375C52.7604 26.0625 52.9167 25.75 53.0625 25.4375C53.2292 25.1042 53.3854 24.7396 53.5312 24.3438C53.2396 24.0729 53.0208 23.7812 52.875 23.4688C52.75 23.1354 52.6562 22.8125 52.5938 22.5C52.5312 22.1667 52.4792 21.8333 52.4375 21.5C52.3958 21.1458 52.3229 20.7917 52.2188 20.4375C52.4271 20.125 52.6771 19.875 52.9688 19.6875C53.2812 19.4792 53.6146 19.3125 53.9688 19.1875C54.3229 19.0625 54.7083 18.9583 55.125 18.875C55.5417 18.7917 55.9792 18.6979 56.4375 18.5938C57.2708 18.3229 58.0104 18.1146 58.6562 17.9688C59.3229 17.8229 59.9688 17.7083 60.5938 17.625C61.2396 17.5208 61.9062 17.4271 62.5938 17.3438C63.2812 17.2604 64.0625 17.1354 64.9375 16.9688C65.125 17.1562 65.3021 17.25 65.4688 17.25C65.5521 17.0625 65.6458 17.0104 65.75 17.0938C65.875 17.1562 65.9271 17.0938 65.9062 16.9062C66.1146 17.2604 66.375 17.5625 66.6875 17.8125C67.0208 18.0417 67.3854 18.2396 67.7812 18.4062ZM71.75 32.75C71.5208 33.5833 71.3125 34.2188 71.125 34.6562C70.9583 35.0729 70.6979 35.5104 70.3438 35.9688C70.0729 35.9271 69.8854 35.9583 69.7812 36.0625C69.6771 36.1667 69.5625 36.2604 69.4375 36.3438C69.25 36.3854 69.1146 36.3854 69.0312 36.3438C68.9479 36.3021 68.875 36.25 68.8125 36.1875C68.75 36.1458 68.6667 36.0938 68.5625 36.0312C68.4792 35.9896 68.3438 35.9688 68.1562 35.9688C68.1146 35.8021 68.0625 35.6458 68 35.5C67.9583 35.3542 67.8229 35.3021 67.5938 35.3438C67.6354 35.1771 67.6458 35.0417 67.625 34.9375C67.6042 34.8125 67.5729 34.7083 67.5312 34.625C67.5104 34.5208 67.4896 34.4271 67.4688 34.3438C67.4479 34.2396 67.4583 34.1146 67.5 33.9688C67.3958 33.9688 67.3125 33.8958 67.25 33.75C67.1875 33.6042 67.1146 33.4583 67.0312 33.3125C67.0938 32.9375 67.1562 32.5833 67.2188 32.25C67.2812 31.9167 67.3542 31.6042 67.4375 31.3125C67.5417 31.0208 67.625 30.7292 67.6875 30.4375C67.75 30.1458 67.7188 29.8438 67.5938 29.5312C67.6771 29.5938 67.7396 29.5833 67.7812 29.5C67.8229 29.3958 67.8542 29.2708 67.875 29.125C67.8958 28.9583 67.9062 28.8021 67.9062 28.6562C67.9062 28.4896 67.8958 28.3542 67.875 28.25C68.0833 27.7083 68.25 27.1562 68.375 26.5938C68.5208 26.0104 68.6458 25.4375 68.75 24.875C68.875 24.3125 69 23.7604 69.125 23.2188C69.25 22.6771 69.4167 22.1771 69.625 21.7188C69.8542 21.6771 70.1042 21.7083 70.375 21.8125C70.6667 21.8958 70.8438 22.0104 70.9062 22.1562C71.4479 21.7396 71.9271 21.2396 72.3438 20.6562C72.7604 20.0521 73.1875 19.4688 73.625 18.9062C74.0625 18.3438 74.5417 17.8438 75.0625 17.4062C75.6042 16.9688 76.2812 16.7083 77.0938 16.625C77.5104 16.9375 77.9688 17.2604 78.4688 17.5938C78.9896 17.9062 79.4167 18.3229 79.75 18.8438C79.9167 18.9271 80.0521 19.0208 80.1562 19.125C80.2812 19.2083 80.4271 19.3021 80.5938 19.4062V19.7812C80.8438 20.0104 81.0417 20.2812 81.1875 20.5938C81.3542 20.8854 81.5 21.2083 81.625 21.5625C81.75 21.8958 81.875 22.2396 82 22.5938C82.125 22.9271 82.2708 23.25 82.4375 23.5625C82.3958 23.6667 82.375 23.7604 82.375 23.8438C82.375 23.9062 82.3854 23.9792 82.4062 24.0625C82.4479 24.1458 82.4792 24.2292 82.5 24.3125C82.5208 24.3958 82.5208 24.5104 82.5 24.6562C82.4375 25.5729 82.1354 26.3125 81.5938 26.875C81.0729 27.4375 80.4375 27.9062 79.6875 28.2812C78.9375 28.6354 78.1354 28.9375 77.2812 29.1875C76.4271 29.4375 75.6562 29.7083 74.9688 30C74.9688 30.0833 75 30.125 75.0625 30.125C75.1458 30.125 75.1771 30.1771 75.1562 30.2812C75.6562 30.5938 76.0521 30.8438 76.3438 31.0312C76.6354 31.2188 76.9062 31.375 77.1562 31.5C77.4271 31.625 77.7083 31.7396 78 31.8438C78.3125 31.9271 78.7396 32.0312 79.2812 32.1562C79.8229 32.2812 80.2396 32.3854 80.5312 32.4688C80.8438 32.5312 81.125 32.5938 81.375 32.6562C81.625 32.6979 81.875 32.7396 82.125 32.7812C82.3958 32.8021 82.7708 32.8333 83.25 32.875C83.4375 33.0625 83.5938 33.2917 83.7188 33.5625C83.8646 33.8125 83.9583 34.0729 84 34.3438C84.0417 34.5938 84.0521 34.8438 84.0312 35.0938C84.0104 35.3229 83.9375 35.5104 83.8125 35.6562C83.8333 35.7188 83.875 35.75 83.9375 35.75C84.0208 35.7292 84.1042 35.7292 84.1875 35.75C84.0625 35.8333 83.9583 35.9375 83.875 36.0625C83.7917 36.1875 83.7083 36.3125 83.625 36.4375C83.5417 36.5625 83.4479 36.6667 83.3438 36.75C83.2396 36.8542 83.0938 36.9167 82.9062 36.9375C82.2604 37.1875 81.4479 37.1979 80.4688 36.9688C79.4896 36.7604 78.25 36.3646 76.75 35.7812C76 35.4896 75.3854 35.2396 74.9062 35.0312C74.4479 34.8021 74.0417 34.5833 73.6875 34.375C73.3542 34.1458 73.0417 33.9062 72.75 33.6562C72.4792 33.4062 72.1458 33.1042 71.75 32.75ZM76.2188 22.0312C75.9896 22.3646 75.7292 22.6667 75.4375 22.9375C75.1667 23.2083 74.8958 23.4896 74.625 23.7812C74.375 24.0521 74.1458 24.3646 73.9375 24.7188C73.7292 25.0521 73.5833 25.4479 73.5 25.9062C74.2292 25.8229 74.9896 25.625 75.7812 25.3125C76.5729 24.9792 77.3229 24.6667 78.0312 24.375C77.9479 23.7292 77.7188 23.2083 77.3438 22.8125C76.9896 22.4167 76.6146 22.1562 76.2188 22.0312ZM86.9375 33.2812C86.3333 32.8229 85.8333 32.25 85.4375 31.5625C85.0625 30.875 84.7604 30.1458 84.5312 29.375C84.3229 28.6042 84.1771 27.8125 84.0938 27C84.0312 26.1667 84.0104 25.375 84.0312 24.625C84.2188 24.0625 84.4479 23.5521 84.7188 23.0938C84.9896 22.6146 85.2917 22.1667 85.625 21.75C85.9583 21.3125 86.3021 20.9062 86.6562 20.5312C87.0312 20.1354 87.3958 19.7396 87.75 19.3438C87.875 19.3438 87.9896 19.375 88.0938 19.4375C88.1771 19.2083 88.3021 19.0104 88.4688 18.8438C88.6354 18.6771 88.8125 18.5312 89 18.4062C89.1875 18.2604 89.375 18.125 89.5625 18C89.75 17.8542 89.9062 17.6875 90.0312 17.5C90.5521 17.375 91.0104 17.1979 91.4062 16.9688C91.8229 16.7396 92.2188 16.4896 92.5938 16.2188C92.9688 15.9479 93.3542 15.6979 93.75 15.4688C94.1458 15.2396 94.6042 15.0625 95.125 14.9375C95.3125 14.7292 95.5417 14.5521 95.8125 14.4062C96.1042 14.2604 96.3854 14.125 96.6562 14C96.9479 13.875 97.2188 13.7396 97.4688 13.5938C97.7396 13.4479 97.9583 13.25 98.125 13C98.25 13.1667 98.4271 13.2292 98.6562 13.1875C98.8854 13.125 99.0938 13.0625 99.2812 13C99.4062 12.9792 99.5104 13 99.5938 13.0625C99.6771 13.125 99.75 13.1979 99.8125 13.2812C99.8958 13.3438 99.9583 13.3854 100 13.4062C100.062 13.4271 100.125 13.3646 100.188 13.2188C100.354 13.2396 100.396 13.3125 100.312 13.4375C100.25 13.5625 100.208 13.6458 100.188 13.6875C100.396 13.6458 100.562 13.6875 100.688 13.8125C100.833 13.9167 101.052 13.9896 101.344 14.0312C101.448 14.1354 101.479 14.2188 101.438 14.2812C101.396 14.3438 101.365 14.4479 101.344 14.5938C102.094 14.8229 102.573 15.1875 102.781 15.6875C102.99 16.1667 103.01 16.6771 102.844 17.2188C102.677 17.7396 102.365 18.2292 101.906 18.6875C101.469 19.125 100.979 19.4167 100.438 19.5625C99.7917 19.7292 99.1875 19.8958 98.625 20.0625C98.0833 20.2292 97.5521 20.4167 97.0312 20.625C96.5312 20.8333 96.0521 21.0833 95.5938 21.375C95.1562 21.6458 94.7708 21.9688 94.4375 22.3438C93.8542 22.5104 93.3229 22.7396 92.8438 23.0312C92.3854 23.3229 91.9479 23.6458 91.5312 24C91.1354 24.3542 90.75 24.7292 90.375 25.125C90 25.5 89.625 25.875 89.25 26.25C89.25 26.6042 89.1875 26.875 89.0625 27.0625C88.9375 27.25 88.8021 27.4375 88.6562 27.625C88.6979 28.0208 88.7812 28.3646 88.9062 28.6562C89.0521 28.9271 89.1979 29.2083 89.3438 29.5C91.0104 30 92.7708 30.3125 94.625 30.4375C96.5 30.5417 98.3542 30.6042 100.188 30.625C100.375 30.875 100.583 31.1146 100.812 31.3438C101.062 31.5521 101.281 31.7708 101.469 32C101.677 32.2292 101.833 32.5 101.938 32.8125C102.062 33.1042 102.094 33.4583 102.031 33.875C101.677 34.2292 101.292 34.5729 100.875 34.9062C100.458 35.2188 100.042 35.5312 99.625 35.8438C99.4375 35.8646 99.2083 35.8646 98.9375 35.8438C98.6875 35.8229 98.4167 35.8125 98.125 35.8125C97.8542 35.8125 97.5729 35.8333 97.2812 35.875C97.0104 35.8958 96.75 35.9583 96.5 36.0625C95.1875 36.0208 93.8438 35.8646 92.4688 35.5938C91.0938 35.3021 89.8229 34.9583 88.6562 34.5625C88.4271 34.2917 88.1875 34.0417 87.9375 33.8125C87.6875 33.5625 87.3542 33.3854 86.9375 33.2812ZM119.594 32.9688C119.635 33.5104 119.573 33.9583 119.406 34.3125C119.24 34.6667 119.01 34.9688 118.719 35.2188C118.427 35.4688 118.094 35.6667 117.719 35.8125C117.344 35.9583 116.979 36.0938 116.625 36.2188C116.458 36.1146 116.292 36.0104 116.125 35.9062C115.979 35.7812 115.802 35.6875 115.594 35.625C115.323 35.125 115.062 34.6875 114.812 34.3125C114.562 33.9167 114.448 33.4688 114.469 32.9688C114.469 32.9479 114.479 32.8333 114.5 32.625C114.542 32.4167 114.583 32.1875 114.625 31.9375C114.688 31.6875 114.729 31.4583 114.75 31.25C114.792 31.0208 114.812 30.8958 114.812 30.875C114.333 30.9167 113.833 31.0208 113.312 31.1875C112.792 31.3542 112.281 31.5521 111.781 31.7812C111.302 32.0104 110.844 32.2396 110.406 32.4688C109.99 32.6979 109.646 32.8958 109.375 33.0625C109.375 33.125 109.333 33.2812 109.25 33.5312C109.167 33.7604 109.062 34.0104 108.938 34.2812C108.812 34.5312 108.677 34.7604 108.531 34.9688C108.385 35.1771 108.24 35.2812 108.094 35.2812C108.115 35.3438 108.146 35.4062 108.188 35.4688C108.229 35.5312 108.229 35.6146 108.188 35.7188C107.896 35.8021 107.635 35.9062 107.406 36.0312C107.177 36.1771 106.938 36.2917 106.688 36.375C106.438 36.4792 106.167 36.5312 105.875 36.5312C105.583 36.5312 105.24 36.4271 104.844 36.2188C104.844 36.0938 104.792 35.9896 104.688 35.9062C104.583 35.8021 104.469 35.7188 104.344 35.6562C104.24 35.5729 104.146 35.5104 104.062 35.4688C103.979 35.4062 103.938 35.3542 103.938 35.3125C103.833 35.3333 103.792 35.2604 103.812 35.0938C103.833 34.9271 103.917 34.8854 104.062 34.9688C103.833 34.6771 103.688 34.4271 103.625 34.2188C103.583 33.9896 103.469 33.7083 103.281 33.375C103.323 33.3333 103.365 33.2604 103.406 33.1562C103.427 33.0521 103.448 32.9583 103.469 32.875C103.49 32.7917 103.521 32.7292 103.562 32.6875C103.604 32.6458 103.656 32.6562 103.719 32.7188C103.677 32.5312 103.677 32.375 103.719 32.25C103.76 32.125 103.802 32.0104 103.844 31.9062C103.885 31.8021 103.917 31.6979 103.938 31.5938C103.958 31.4896 103.927 31.375 103.844 31.25C104.177 30.7917 104.396 30.3021 104.5 29.7812C104.604 29.2396 104.667 28.75 104.688 28.3125C104.833 28.1667 104.958 27.9583 105.062 27.6875C105.188 27.4167 105.281 27.1458 105.344 26.875C105.406 26.5833 105.427 26.3125 105.406 26.0625C105.406 25.7917 105.375 25.5729 105.312 25.4062C105.333 25.3021 105.448 25.2708 105.656 25.3125C105.781 24.625 105.865 23.8542 105.906 23C105.969 22.125 106.062 21.3021 106.188 20.5312C106.312 19.7396 106.521 19.0521 106.812 18.4688C107.104 17.8646 107.573 17.4688 108.219 17.2812C108.344 17.7188 108.5 18.1042 108.688 18.4375C108.896 18.7708 109.115 19.0938 109.344 19.4062C109.594 19.6979 109.833 20 110.062 20.3125C110.312 20.625 110.542 20.9792 110.75 21.375C110.729 21.7708 110.688 22.2292 110.625 22.75C110.562 23.2708 110.479 23.8021 110.375 24.3438C110.292 24.8854 110.198 25.4062 110.094 25.9062C110.01 26.4062 109.927 26.8333 109.844 27.1875C109.865 27.2917 109.917 27.3542 110 27.375C110.104 27.3958 110.125 27.4896 110.062 27.6562C110.562 27.5312 111.083 27.4167 111.625 27.3125C112.167 27.2083 112.708 27.0938 113.25 26.9688C113.792 26.8438 114.312 26.7083 114.812 26.5625C115.333 26.3958 115.812 26.1979 116.25 25.9688C116.354 25.1562 116.49 24.3438 116.656 23.5312C116.823 22.7188 116.844 21.8854 116.719 21.0312C116.823 20.9479 116.906 20.8438 116.969 20.7188C117.031 20.5938 117.135 20.5104 117.281 20.4688C117.177 20.0729 117.135 19.6562 117.156 19.2188C117.177 18.7812 117.25 18.3646 117.375 17.9688C117.521 17.5729 117.719 17.2396 117.969 16.9688C118.24 16.6771 118.562 16.4896 118.938 16.4062C119.167 16.7396 119.365 17.1042 119.531 17.5C119.698 17.875 119.865 18.2604 120.031 18.6562C120.219 19.0312 120.406 19.3958 120.594 19.75C120.802 20.0833 121.062 20.375 121.375 20.625C121.438 21.2292 121.479 21.8542 121.5 22.5C121.542 23.1458 121.573 23.8021 121.594 24.4688C121.427 25.2604 121.24 26.0312 121.031 26.7812C120.844 27.5104 120.708 28.2917 120.625 29.125C120.479 29.2917 120.365 29.4792 120.281 29.6875C120.198 29.8958 120.115 30.1146 120.031 30.3438C119.948 30.5521 119.854 30.7604 119.75 30.9688C119.646 31.1562 119.521 31.3229 119.375 31.4688C119.458 31.7188 119.469 31.9583 119.406 32.1875C119.365 32.3958 119.427 32.6562 119.594 32.9688ZM138.75 33.375C138.625 33.7292 138.438 34.0938 138.188 34.4688C137.958 34.8229 137.677 35.1458 137.344 35.4375C137.031 35.7083 136.677 35.9375 136.281 36.125C135.885 36.3125 135.469 36.4167 135.031 36.4375C134.76 36.375 134.573 36.3021 134.469 36.2188C134.385 36.1562 134.292 36.0938 134.188 36.0312C134.125 35.9896 134.062 35.9583 134 35.9375C133.958 35.8958 133.917 35.8646 133.875 35.8438L133.5 35.6875L133.625 35.2812C133.667 35.1146 133.656 34.9896 133.594 34.9062C133.531 34.8021 133.406 34.6667 133.219 34.5C133.156 34.4375 133.094 34.375 133.031 34.3125C132.969 34.25 132.917 34.1875 132.875 34.125L132.344 33.5312L133.188 33.3125C133.708 33.1667 134.052 32.9792 134.219 32.75C134.406 32.5208 134.479 32.1354 134.438 31.5938C134.021 31.5104 133.667 31.5 133.375 31.5625C133.104 31.625 132.823 31.6979 132.531 31.7812C132.156 31.8854 131.771 31.9792 131.375 32.0625C131 32.125 130.583 32.1562 130.125 32.1562C129.958 32.1562 129.802 32.1562 129.656 32.1562C129.51 32.1354 129.354 32.1146 129.188 32.0938L128.875 32.0312C128.833 31.8021 128.792 31.6771 128.75 31.6562C128.708 31.6146 128.667 31.5729 128.625 31.5312C128.521 31.4271 128.406 31.2917 128.281 31.125C128.177 30.9375 128.156 30.7083 128.219 30.4375C128.115 30.25 128.052 30.0625 128.031 29.875C127.906 30.125 127.812 30.3854 127.75 30.6562L127.625 30.9688L127.312 31.0312C127.271 31.0521 127.24 31.1042 127.219 31.1875C127.198 31.25 127.188 31.3021 127.188 31.3438L127.031 31.875C126.99 31.9167 126.948 31.9583 126.906 32C126.865 32.0208 126.823 32.0521 126.781 32.0938C126.74 32.2812 126.688 32.4688 126.625 32.6562C126.562 32.8438 126.5 33.0208 126.438 33.1875C126.333 33.4583 126.24 33.7292 126.156 34C126.094 34.25 126.073 34.5 126.094 34.75L125.969 35.0938C125.865 35.2188 125.75 35.3229 125.625 35.4062C125.5 35.4688 125.375 35.5312 125.25 35.5938C125.208 35.6354 125.146 35.6771 125.062 35.7188C125 35.7396 124.948 35.7604 124.906 35.7812L124.812 36.125L124.438 36.1875C124.208 36.2292 124.042 36.2604 123.938 36.2812C123.854 36.3021 123.75 36.3125 123.625 36.3125L123.312 36.2812C123.083 36.0938 122.906 35.9479 122.781 35.8438C122.656 35.7188 122.51 35.6042 122.344 35.5C122.156 35.25 122.052 35.0625 122.031 34.9375C122.01 34.8125 121.99 34.6979 121.969 34.5938C121.927 34.4688 121.906 34.3646 121.906 34.2812C121.885 34.1979 121.854 34.1354 121.812 34.0938L121.406 33.7188L121.75 33.4375L121.781 32.9062C122.198 31.8438 122.635 30.8229 123.094 29.8438C123.573 28.8646 124.062 27.8646 124.562 26.8438C124.729 26.5104 124.885 26.1771 125.031 25.8438C125.198 25.5104 125.365 25.1771 125.531 24.8438C125.51 24.7812 125.5 24.7083 125.5 24.625C125.5 24.5417 125.521 24.4479 125.562 24.3438C125.792 23.9896 125.979 23.6771 126.125 23.4062C126.271 23.1146 126.417 22.8229 126.562 22.5312C126.729 22.1771 126.896 21.8333 127.062 21.5C127.25 21.1667 127.479 20.8229 127.75 20.4688L128.25 20.25C128.312 20.2292 128.385 20.2083 128.469 20.1875C128.552 20.1458 128.646 20.125 128.75 20.125L129.219 20.1875C129.802 19.9167 130.312 19.5417 130.75 19.0625C131.188 18.5625 131.635 17.9688 132.094 17.2812L132.406 16.8438L132.812 17.0938C132.917 17.1562 133.062 17.2188 133.25 17.2812C133.438 17.3229 133.635 17.375 133.844 17.4375C134.219 17.5208 134.573 17.6146 134.906 17.7188C135.24 17.8229 135.51 17.9792 135.719 18.1875C135.844 18.5208 135.917 18.7708 135.938 18.9375C135.958 19.1042 135.99 19.2708 136.031 19.4375C136.094 19.7917 136.146 20.1458 136.188 20.5C136.25 20.8542 136.292 21.25 136.312 21.6875C136.417 22.0417 136.5 22.3958 136.562 22.75C136.646 23.0833 136.719 23.4271 136.781 23.7812C136.885 24.2812 136.99 24.7708 137.094 25.25C137.198 25.7083 137.333 26.1458 137.5 26.5625C137.667 26.5625 137.771 26.5729 137.812 26.5938C137.917 26.5521 138.021 26.5208 138.125 26.5C138.25 26.4792 138.385 26.4583 138.531 26.4375L138.875 26.4062L139 26.7188C139.021 26.8229 139.125 26.9271 139.312 27.0312C139.583 27.0521 139.781 27.1146 139.906 27.2188C140.031 27.3021 140.146 27.3958 140.25 27.5C140.333 27.5833 140.417 27.6458 140.5 27.6875L140.969 27.875L140.719 28.3438C140.51 28.7188 140.208 29.0833 139.812 29.4375C139.438 29.7708 139.01 30.0521 138.531 30.2812C138.552 30.4062 138.562 30.5312 138.562 30.6562C138.583 30.7604 138.615 30.875 138.656 31C138.719 31.3542 138.771 31.7188 138.812 32.0938C138.854 32.4688 138.854 32.8542 138.812 33.25L138.75 33.375ZM129.719 27.9688C130.344 27.9271 130.906 27.8854 131.406 27.8438C131.927 27.7812 132.5 27.6875 133.125 27.5625C132.979 26.9375 132.823 26.2917 132.656 25.625C132.49 24.9375 132.312 24.2604 132.125 23.5938L131.938 23.9062C131.521 24.3438 131.115 24.8333 130.719 25.375C130.344 25.9167 130.021 26.4271 129.75 26.9062C129.625 27.0938 129.5 27.2812 129.375 27.4688C129.25 27.6562 129.135 27.8438 129.031 28.0312C129.156 28.0104 129.271 28 129.375 28C129.5 28 129.615 27.9896 129.719 27.9688ZM157 20.9688C156.479 20.9688 155.917 21.0104 155.312 21.0938C154.708 21.1562 154.115 21.2292 153.531 21.3125C153.115 21.375 152.708 21.4271 152.312 21.4688C151.938 21.5104 151.594 21.5417 151.281 21.5625C151.135 22.0208 150.99 22.4271 150.844 22.7812C150.698 23.1354 150.542 23.4792 150.375 23.8125C150.208 24.1667 150.052 24.5312 149.906 24.9062C149.781 25.2604 149.656 25.6458 149.531 26.0625C149.323 26.3958 149.146 26.7083 149 27C148.875 27.2708 148.771 27.5833 148.688 27.9375C148.438 28.25 148.25 28.5833 148.125 28.9375C148 29.2708 147.906 29.5625 147.844 29.8125L147.719 30.1875C147.594 30.3125 147.521 30.4167 147.5 30.5C147.479 30.5625 147.427 30.625 147.344 30.6875C147.323 30.9167 147.25 31.1458 147.125 31.375C147.083 31.4792 147.052 31.5833 147.031 31.6875C147.01 31.7708 147 31.8333 147 31.875C147 32.0833 146.948 32.2188 146.844 32.2812C146.865 32.3854 146.865 32.5 146.844 32.625C146.823 32.7292 146.802 32.8333 146.781 32.9375C146.719 33.1875 146.698 33.3854 146.719 33.5312C146.781 33.6146 146.833 33.6875 146.875 33.75C146.938 33.8125 146.979 33.8958 147 34C147.125 34.0833 147.219 34.1354 147.281 34.1562C147.365 34.2188 147.49 34.2917 147.656 34.375L147.938 34.6875C148.042 35.2917 147.948 35.7708 147.656 36.125C147.344 36.5208 146.812 36.7188 146.062 36.7188H145.688C145.583 36.6146 145.521 36.5312 145.5 36.4688C145.333 36.4062 145.198 36.3542 145.094 36.3125C144.99 36.2708 144.896 36.1875 144.812 36.0625C144.542 35.9375 144.323 35.8333 144.156 35.75L143.875 35.5938C143.875 35.3646 143.875 35.2396 143.875 35.2188C143.729 35.0312 143.615 34.8229 143.531 34.5938C143.469 34.3646 143.417 34.1354 143.375 33.9062C143.333 33.7188 143.281 33.5417 143.219 33.375C143.177 33.2083 143.115 33.0625 143.031 32.9375C142.99 31.7292 143.104 30.7083 143.375 29.875C143.646 29.0417 143.927 28.2396 144.219 27.4688C144.385 27.0521 144.552 26.6354 144.719 26.2188C144.885 25.7812 145.031 25.3333 145.156 24.875L145.438 24.5625C145.583 24.2292 145.698 23.9583 145.781 23.75C145.885 23.5208 145.99 23.2917 146.094 23.0625C146.156 22.9167 146.208 22.7812 146.25 22.6562C146.312 22.5104 146.365 22.3854 146.406 22.2812C146.281 22.2812 146.167 22.2917 146.062 22.3125C145.958 22.3125 145.854 22.3229 145.75 22.3438C145.625 22.3646 145.51 22.3854 145.406 22.4062C145.302 22.4062 145.198 22.4062 145.094 22.4062C144.948 22.4062 144.844 22.3958 144.781 22.375C144.552 22.4792 144.302 22.5312 144.031 22.5312H143.719C143.656 22.5312 143.594 22.5312 143.531 22.5312C143.49 22.5104 143.448 22.5 143.406 22.5C143.198 22.5 143.031 22.5312 142.906 22.5938C142.656 22.5938 142.417 22.5938 142.188 22.5938H141.875C141.833 22.5938 141.781 22.6042 141.719 22.625C141.656 22.625 141.604 22.625 141.562 22.625C141.417 22.625 141.26 22.6146 141.094 22.5938C140.927 22.5521 140.75 22.4792 140.562 22.375C140.312 22.0417 140.146 21.8646 140.062 21.8438L139.781 21.4688C139.76 21.3438 139.729 21.2292 139.688 21.125C139.646 21 139.604 20.8646 139.562 20.7188C139.479 20.5104 139.396 20.2917 139.312 20.0625C139.25 19.8125 139.219 19.5208 139.219 19.1875C139.24 19.0208 139.281 18.8958 139.344 18.8125C139.406 18.7292 139.458 18.6562 139.5 18.5938L139.594 18.125L140 18.1562H140.875C141.542 18.1562 142.219 18.1354 142.906 18.0938C143.594 18.0312 144.302 17.9688 145.031 17.9062C145.448 17.8646 145.865 17.8229 146.281 17.7812C146.719 17.7396 147.167 17.6979 147.625 17.6562C147.708 17.4688 147.792 17.2917 147.875 17.125L148.188 16.9688C148.562 16.9479 148.823 17 148.969 17.125C149.135 17.2292 149.271 17.3333 149.375 17.4375C149.833 17.3958 150.292 17.3542 150.75 17.3125C151.229 17.25 151.708 17.1771 152.188 17.0938C152.896 16.9896 153.604 16.8958 154.312 16.8125C155.042 16.7292 155.74 16.6875 156.406 16.6875C156.698 16.6875 156.979 16.6979 157.25 16.7188C157.521 16.7396 157.771 16.7708 158 16.8125L158.312 17.0312C158.375 17.1562 158.458 17.2708 158.562 17.375C158.688 17.4792 158.812 17.5833 158.938 17.6875C159.188 17.9167 159.438 18.1875 159.688 18.5C159.938 18.8125 160.031 19.2708 159.969 19.875C159.802 20.125 159.677 20.2708 159.594 20.3125L159.312 20.6875L159 20.6562C158.875 20.6562 158.76 20.6771 158.656 20.7188C158.552 20.7396 158.448 20.7708 158.344 20.8125C158.26 20.8542 158.177 20.8958 158.094 20.9375C158.01 20.9583 157.917 20.9792 157.812 21C157.625 21 157.469 21 157.344 21C157.24 20.9792 157.125 20.9688 157 20.9688Z" fill="white"/>
<path d="M191.494 18.9726L193.336 16.0866L190.792 14.9651C190.611 14.9144 190.442 14.827 190.296 14.7083C190.15 14.5895 190.03 14.442 189.944 14.2749C189.85 14.097 189.798 13.9007 189.789 13.7C189.781 13.4993 189.818 13.2993 189.896 13.1144L191.346 9.08747L186.977 11.4224C186.618 11.5782 186.209 11.5754 185.853 11.4085C185.527 11.2567 185.274 10.9842 185.146 10.6487L184.03 8.48078L182.168 10.2229C181.919 10.4331 181.603 10.5473 181.278 10.5447C180.952 10.5422 180.638 10.4231 180.392 10.209L176.249 6.82213L174.242 10.2034C173.9 10.8407 173.101 11.1051 172.444 10.7906L167.354 8.36389L168.501 12.4103C168.607 12.7833 168.548 13.184 168.345 13.5124C168.243 13.6746 168.109 13.8137 167.95 13.9206C167.792 14.0276 167.612 14.0999 167.424 14.133L165.495 14.4642L166.35 16.0143C166.561 16.3009 166.653 16.6572 166.606 17.0134C166.553 17.403 166.333 17.7536 166.004 17.9707L163.405 19.6294L166.845 21.3158C167.045 21.4048 167.22 21.54 167.357 21.7104C167.494 21.8807 167.589 22.0813 167.632 22.2955C167.719 22.7129 167.605 23.1415 167.329 23.4615L165.824 25.6378L168.003 26.0024C168.451 26.0552 168.843 26.3224 169.055 26.7232C169.161 26.9256 169.216 27.1515 169.214 27.3803C169.211 27.6092 169.152 27.8338 169.041 28.0339L164.39 36.3522L172.998 30.3661C173.166 30.248 173.359 30.1696 173.562 30.1368C173.765 30.104 173.973 30.1177 174.17 30.1768C174.57 30.2965 174.89 30.5859 175.049 30.9728L175.077 31.0479L175.611 32.8262L179.727 30.3104C179.951 30.1593 180.214 30.0774 180.484 30.0749C180.753 30.0724 181.018 30.1495 181.244 30.2965L184.497 32.2752L184.931 30.4189C184.964 30.2234 185.038 30.0372 185.15 29.8733C185.261 29.7094 185.407 29.5718 185.577 29.47C185.939 29.2529 186.373 29.2139 186.768 29.3614L191.466 31.1286L189.949 26.7343C189.796 26.3725 189.804 25.9634 189.977 25.6072C190.063 25.4274 190.187 25.2686 190.341 25.1421C190.495 25.0156 190.674 24.9245 190.867 24.8753L194.516 23.7899L191.527 20.7593C191.11 20.2639 191.104 19.4819 191.494 18.9726V18.9726Z" fill="url(#paint0_linear)"/>
<path d="M196.13 23.0552L192.935 19.8186L194.97 16.6293L194.989 16.5987C195.206 16.2258 195.226 15.7666 195.048 15.3742C194.967 15.1987 194.849 15.0427 194.703 14.9169C194.556 14.7911 194.384 14.6983 194.199 14.6451L191.544 13.4762L193.161 8.98729C193.375 8.47522 193.264 7.89358 192.871 7.49561C192.677 7.29721 192.427 7.16269 192.155 7.10998C191.882 7.05728 191.6 7.08889 191.346 7.20062L186.562 9.75817L185.338 7.37594C185.199 7.00024 184.915 6.72473 184.545 6.61619C184.119 6.48818 183.637 6.60506 183.256 6.9251L181.277 8.77578L177.064 5.33324C176.741 5.05495 176.318 4.94363 175.901 5.02712C175.494 5.10782 175.155 5.36107 174.96 5.72286L172.917 9.17096L167.477 6.57445C166.984 6.34068 166.419 6.41304 166.002 6.76369C165.798 6.93234 165.649 7.15693 165.571 7.40968C165.494 7.66243 165.493 7.93226 165.567 8.18579L166.803 12.5495L164.774 12.8974C164.536 12.9402 164.313 13.045 164.129 13.2014C163.944 13.3577 163.804 13.5601 163.722 13.7879C163.569 14.2165 163.642 14.6952 163.912 15.0597L164.836 16.7379L162.039 18.5217C161.831 18.6584 161.665 18.8491 161.558 19.0732C161.451 19.2974 161.408 19.5464 161.432 19.7936C161.455 20.0353 161.542 20.2667 161.683 20.4638C161.825 20.6609 162.017 20.8167 162.239 20.9151L165.837 22.6795L164.14 25.1313C163.825 25.4903 163.728 25.9467 163.884 26.3642C164.054 26.8206 164.496 27.1378 165.042 27.1991L167.371 27.5887L162.298 36.6667C161.983 37.2261 162.097 37.9191 162.573 38.3504C162.825 38.5796 163.154 38.7066 163.494 38.7066C163.767 38.7066 164.04 38.6259 164.276 38.459L173.61 31.9691L174.136 33.7279L174.164 33.803C174.242 33.9954 174.362 34.1674 174.517 34.3058C174.671 34.4443 174.855 34.5455 175.055 34.6018C175.45 34.7159 175.864 34.6491 176.201 34.4181L180.495 31.7937L183.946 33.8921C184.339 34.1509 184.828 34.1871 185.257 33.9951C185.463 33.9034 185.643 33.7617 185.781 33.5829C185.918 33.404 186.009 33.1937 186.045 32.9709L186.495 31.0423L191.471 32.9153C191.997 33.1129 192.582 32.9737 192.96 32.5618C193.139 32.3684 193.259 32.1273 193.304 31.8677C193.35 31.608 193.319 31.3408 193.216 31.098L191.594 26.3948L195.42 25.2565C195.642 25.1995 195.845 25.0878 196.012 24.9317C196.179 24.7756 196.303 24.5801 196.375 24.3632C196.45 24.1426 196.467 23.9062 196.425 23.677C196.382 23.4478 196.28 23.2336 196.13 23.0552V23.0552ZM190.865 24.8753C190.475 24.9782 190.149 25.2426 189.974 25.6072C189.889 25.7822 189.843 25.9733 189.838 26.1677C189.833 26.3621 189.87 26.5553 189.946 26.7343L191.463 31.1286L186.765 29.3614C186.572 29.2884 186.364 29.2602 186.157 29.279C185.951 29.2978 185.752 29.3631 185.574 29.47C185.404 29.5719 185.259 29.7096 185.147 29.8735C185.036 30.0373 184.961 30.2234 184.929 30.419L184.494 32.2752L181.241 30.2965C181.015 30.1495 180.75 30.0724 180.481 30.0749C180.211 30.0774 179.948 30.1593 179.724 30.3104L175.608 32.8262L175.074 31.0479L175.046 30.9728C174.969 30.7826 174.85 30.6123 174.697 30.4746C174.545 30.3368 174.364 30.235 174.167 30.1768C173.97 30.1178 173.762 30.1042 173.559 30.137C173.356 30.1697 173.164 30.2481 172.995 30.3661L164.388 36.3522L169.038 28.0339C169.266 27.6276 169.272 27.1378 169.052 26.7232C168.948 26.5266 168.798 26.3582 168.615 26.2326C168.432 26.107 168.221 26.028 168 26.0024L165.821 25.6378L167.326 23.4615C167.602 23.1415 167.716 22.7101 167.63 22.2955C167.586 22.0813 167.492 21.8806 167.355 21.7103C167.218 21.5399 167.042 21.4047 166.842 21.3158L163.405 19.6294L166.002 17.9735C166.164 17.8658 166.302 17.7247 166.405 17.5597C166.509 17.3946 166.576 17.2093 166.603 17.0162C166.65 16.6627 166.558 16.3037 166.347 16.0171L165.492 14.467L167.421 14.1358C167.61 14.1024 167.789 14.0298 167.948 13.9227C168.107 13.8156 168.241 13.6764 168.343 13.514C168.444 13.3516 168.51 13.1697 168.537 12.98C168.564 12.7904 168.551 12.5973 168.498 12.4131L167.351 8.36668L172.441 10.7934C173.098 11.1051 173.897 10.8435 174.239 10.2062L176.246 6.82492L180.39 10.2118C180.636 10.4246 180.949 10.5428 181.275 10.5454C181.6 10.5479 181.916 10.4346 182.165 10.2257L184.024 8.48635L185.14 10.6543C185.265 10.9882 185.519 11.2638 185.847 11.414C186.203 11.5782 186.612 11.5838 186.971 11.428L191.341 9.09304L189.891 13.12C189.732 13.4957 189.749 13.9159 189.938 14.2805C190.024 14.4479 190.144 14.5956 190.29 14.7144C190.436 14.8331 190.605 14.9204 190.787 14.9707L193.33 16.0922L191.488 18.9782C191.096 19.4847 191.104 20.2695 191.516 20.762L194.505 23.7927L190.865 24.8753V24.8753Z" fill="white"/>
<defs>
<linearGradient id="paint0_linear" x1="195" y1="19.5" x2="163" y2="19.5" gradientUnits="userSpaceOnUse">
<stop stop-color="#D38312"/>
<stop offset="1" stop-color="#A83279"/>
</linearGradient>
</defs>
</svg>
